Director: Darren Aronofsky

Writers: Mark Heyman (screenplay), Andres Heinz (screenplay), 

Stars: Natalie Portman, Mila Kunis and Vincent Cassel

Plot:A ballet dancer wins the lead in "Swan Lake" and is perfect for the role of the delicate 
White Swan - Princess Odette - but slowly loses her mind as she becomes more and more like Odile 
the Black Swan, daughter of an evil magician.

Plot Keywords: Dancer | Ballerina | Swan Lake | Ballet | Dance  | 

Genres: Drama | Fantasy

Motion Picture Rating (MPAA)
Rated R for strong sexual content, disturbing violent images, language and some drug use.


------------------------------------------------------------


General
Format                           : MPEG-4
Format profile                   : Base Media
Codec ID                         : isom
File size                        : 491 MiB
Duration                         : 1h 48mn
Overall bit rate                 : 635 Kbps


Video
ID                               : 1
Format                           : AVC
Format/Info                      : Advanced Video Codec
Format profile                   : High@L4.0
Format settings, CABAC           : Yes
Format settings, ReFrames        : 8 frames
Codec ID                         : avc1
Codec ID/Info                    : Advanced Video Coding
Duration                         : 1h 48mn
Bit rate mode                    : Variable
Bit rate                         : 597 Kbps
Maximum bit rate                 : 2 827 Kbps
Width                            : 1 264 pixels
Height                           : 528 pixels
Display aspect ratio             : 2.35:1
Frame rate mode                  : Constant
Frame rate                       : 23.976 fps
Color space                      : YUV
Chroma subsampling               : 4:2:0
Bit depth                        : 8 bits
Scan type                        : Progressive
Bits/(Pixel*Frame)               : 0.037


Audio
ID                               : 2
Format                           : AAC
Format/Info                      : Advanced Audio Codec
Format version                   : Version 4
Format profile                   : LC
Format settings, SBR             : Yes
Format settings, PS              : Yes
Codec ID                         : 40
Duration                         : 1h 48mn
Bit rate mode                    : Variable
Bit rate                         : 34.4 Kbps
Maximum bit rate                 : 41.8 Kbps
Channel(s)                       : 2 channels
Channel positions                : Front: L R
Sampling rate                    : 48.0 KHz


Text #1
ID                               : 3
Format                           : Timed text
Codec ID                         : tx3g
Duration                         : 1h 42mn
Bit rate mode                    : Variable
Bit rate                         : 33 bps
Stream size                      : 25.1 KiB (0%)


Text #2
ID                               : 4
Format                           : Timed text
Codec ID                         : tx3g
Duration                         : 1h 42mn
Bit rate mode                    : Variable
Bit rate                         : 31 bps
Stream size                      : 23.0 KiB (0%)

Text #3
ID                               : 5
Format                           : Timed text
Codec ID                         : tx3g
Duration                         : 1h 42mn
Bit rate mode                    : Variable
Bit rate                         : 45 bps



------------------------------------------------------------
                  Comment seed & enjoy!!

**Note: Screenshots included**